<?xml version="1.0" encoding="utf-8"?>
<!-- Svg Vector Icons : http://www.onlinewebfonts.com/icon -->
<!DOCTYPE svg PUBLIC "-//W3C//DTD SVG 1.1//EN" "http://www.w3.org/Graphics/SVG/1.1/DTD/svg11.dtd">
<svg version="1.1" xmlns="http://www.w3.org/2000/svg" xmlns:xlink="http://www.w3.org/1999/xlink" x="0px" y="0px" viewBox="0 0 256 256" enable-background="new 0 0 256 256" xml:space="preserve">
<metadata> Svg Vector Icons : http://www.onlinewebfonts.com/icon </metadata>
<g><g><g><path fill="#000000" d="M127.5,21.6c-16.7,4.8-50,14.4-73.9,21.3S10.1,55.4,10,55.5c-0.1,0.1,8.4,29.7,18.7,65.7c10.4,36.1,20,69.6,21.3,74.3c1.4,4.8,2.5,8.7,2.6,8.8c0,0.1,148.5-42.4,148.9-42.7c0.3-0.2-42.7-149-43.1-148.9C158.2,12.8,144.3,16.8,127.5,21.6z M149.2,31.4c0.1,0.5,3.9,13.5,8.3,28.9c4.4,15.4,9.8,34,11.9,41.2c2.1,7.3,3.7,13.4,3.6,13.5c-0.1,0.1-4-3.4-8.5-8c-8.9-8.7-10.8-10-12.5-8.6c-0.5,0.4-1.3,1.9-1.7,3.1c-1.2,3.5-3.2,5-7.4,5.6c-2.3,0.3-2.6,0.5-3.4,2.1c-0.5,1-1.7,4.8-2.7,8.5c-1.8,7-3.7,11.6-6.8,16.4c-1,1.5-1.5,2.7-1.4,2.7c0.2,0,10.8-3,23.7-6.7l23.3-6.7l1.2,4c0.7,2.1,1.3,4.3,1.4,4.9c0.1,0.9-5,2.4-59.7,18.2c-32.9,9.5-60.1,17.2-60.5,17.3c-0.6,0-3-7.1-3-8.8c0-0.5,0.8-1,2.6-1.5c42.2-12.1,60.3-17.3,61.5-17.7c1.2-0.4,2.2-1.5,4.9-5.7c4.6-7.1,5.7-9.5,7.4-15.9l1.4-5.5l-2.3-2c-1.3-1.1-7.9-7.4-14.6-14.2c-12.9-12.8-15.9-15.2-18.8-15.2c-2.3,0-3.1,1-4.7,5.2c-2.4,6.6-5.2,8.9-12.2,9.9c-3.5,0.5-4.1,0.7-5.1,2c-1.4,1.9-2.6,5.4-4.8,14.3c-2.4,9.5-4.3,15.1-6.8,19.9c-2,3.9-8.4,14.3-10.2,16.6c-0.9,1.1-1.2,0-13-41.3c-6.7-23.3-12.1-42.4-12-42.5c0.1-0.1,120-34.8,120.7-34.9C148.8,30.6,149.1,31,149.2,31.4z"/><path fill="#000000" d="M49.6,69.5c-9.1,4.5-9.2,17.3,0,21.9c6.6,3.4,15-0.3,17.1-7.5C69.7,73.7,59.1,64.8,49.6,69.5z"/><path fill="#000000" d="M179.9,50.7c0,0.2,0.9,3.5,2.1,7.4l2,7l10,0.7c5.5,0.4,10.1,0.8,10.2,1c0.1,0.1-0.7,12.6-1.8,27.8l-2,27.5l5.6,19.4c3.1,10.7,5.7,19.5,5.8,19.5c0.3,0,8.3-107.3,8-107.6c-0.1-0.2-36.4-3-38.7-3C180.4,50.4,179.9,50.5,179.9,50.7z"/><path fill="#000000" d="M225.9,104.6c-0.4,5.8-0.4,7.9,0,8.1c0.4,0.3,0.4,0.7-0.1,1.5c-0.4,0.7-1.1,7.4-1.9,18.5c-0.7,9.6-1.3,17.4-1.2,17.5c0,0,5.4-9.6,11.8-21.4c6.4-11.9,11.6-21.6,11.5-21.7c-0.3-0.2-19.2-10.4-19.4-10.4C226.5,96.7,226.2,100.3,225.9,104.6z"/><path fill="#000000" d="M157.6,184.3c-29.7,8.5-53.9,15.6-53.8,15.7c0.2,0.3,104.4,7.8,104.6,7.6c0.1-0.1,0.9-8.3,1.6-18.1c1-13.2,1.5-18.2,2.1-19.3c0.6-1.1,0.6-1.5,0.1-1.4C211.8,168.8,187.3,175.8,157.6,184.3z"/><path fill="#000000" d="M111.4,210.4c0.8,0.8,61.1,33.1,61.2,32.8c0-0.2,3.4-6.4,7.3-13.7l7.2-13.3l-1.8-0.3c-1-0.2-17-1.5-35.6-2.8c-18.6-1.4-34.9-2.6-36.2-2.7C112.2,210.3,111.2,210.3,111.4,210.4z"/></g></g></g>
</svg>